<svg width="131" height="75" viewBox="0 0 131 75" fill="none" xmlns="http://www.w3.org/2000/svg">
<path d="M31.68 59V60H33.4462L32.5375 58.4855L31.68 59ZM1.8 59L0.942507 58.4855L0.0338096 60H1.8V59ZM7.848 48.92L8.74243 48.4728L7.92775 46.8434L6.99051 48.4055L7.848 48.92ZM10.008 51.08L10.4552 50.1856L10.008 51.08ZM27.36 51.8L28.2175 51.2855L27.9262 50.8H27.36V51.8ZM29.088 50.792L28.3569 51.4743L28.3805 51.4995L28.4057 51.5231L29.088 50.792ZM34.2 50.792L34.9071 51.4991L34.2 50.792ZM34.2 45.68L33.4689 46.3623L33.4925 46.3875L33.5177 46.4111L34.2 45.68ZM29.088 45.68L28.3809 44.9729L29.088 45.68ZM23.832 40.856L23.1004 40.1743L23.0998 40.1749L23.832 40.856ZM30.96 37.4L31.0288 38.3976L31.7539 38.3476L31.9301 37.6425L30.96 37.4ZM31.896 35.24L31.1151 34.6153H31.1151L31.896 35.24ZM33.048 33.872L33.5798 33.0251L32.8629 32.575L32.3006 33.2076L33.048 33.872ZM24.048 55.832L23.3328 56.531L23.3409 56.5391L24.048 55.832ZM31.68 58H1.8V60H31.68V58ZM2.65749 59.5145L8.70549 49.4345L6.99051 48.4055L0.942507 58.4855L2.65749 59.5145ZM6.95357 49.3672C7.53034 50.5207 8.40726 51.3977 9.56079 51.9744L10.4552 50.1856C9.68874 49.8023 9.12566 49.2393 8.74243 48.4728L6.95357 49.3672ZM9.56079 51.9744C10.6267 52.5074 11.6917 52.8 12.744 52.8V50.8C12.0683 50.8 11.3093 50.6126 10.4552 50.1856L9.56079 51.9744ZM12.744 52.8H27.36V50.8H12.744V52.8ZM26.5025 52.3145L30.8225 59.5145L32.5375 58.4855L28.2175 51.2855L26.5025 52.3145ZM27.08 48.2C27.08 49.4547 27.5077 50.5644 28.3569 51.4743L29.8191 50.1097C29.3243 49.5796 29.08 48.9613 29.08 48.2H27.08ZM28.4057 51.5231C29.3156 52.3723 30.4253 52.8 31.68 52.8V50.8C30.9187 50.8 30.3004 50.5557 29.7703 50.0609L28.4057 51.5231ZM31.68 52.8C32.9354 52.8 34.0353 52.3709 34.9071 51.4991L33.4929 50.0849C33.0207 50.5571 32.4406 50.8 31.68 50.8V52.8ZM34.9071 51.4991C35.8125 50.5937 36.28 49.4762 36.28 48.2H34.28C34.28 48.9398 34.0275 49.5503 33.4929 50.0849L34.9071 51.4991ZM36.28 48.2C36.28 46.9222 35.8103 45.815 34.8823 44.9489L33.5177 46.4111C34.0297 46.889 34.28 47.4618 34.28 48.2H36.28ZM34.9311 44.9977C34.065 44.0697 32.9578 43.6 31.68 43.6V45.6C32.4182 45.6 32.991 45.8503 33.4689 46.3623L34.9311 44.9977ZM31.68 43.6C30.4038 43.6 29.2863 44.0675 28.3809 44.9729L29.7951 46.3871C30.3297 45.8525 30.9402 45.6 31.68 45.6V43.6ZM28.3809 44.9729C27.5091 45.8447 27.08 46.9446 27.08 48.2H29.08C29.08 47.4394 29.3229 46.8593 29.7951 46.3871L28.3809 44.9729ZM21.952 48.2C21.952 45.6194 22.8172 43.4151 24.5642 41.5371L23.0998 40.1749C21.0068 42.4249 19.952 45.1166 19.952 48.2H21.952ZM24.5636 41.5377C26.3653 39.6042 28.5073 38.5715 31.0288 38.3976L30.8912 36.4024C27.8447 36.6125 25.2347 37.8838 23.1004 40.1743L24.5636 41.5377ZM31.9301 37.6425C32.1541 36.7467 32.4211 36.1845 32.6769 35.8647L31.1151 34.6153C30.6029 35.2555 30.2459 36.1333 29.9899 37.1575L31.9301 37.6425ZM32.6769 35.8647C33.0507 35.3974 33.4236 34.9546 33.7954 34.5364L32.3006 33.2076C31.9044 33.6534 31.5093 34.1226 31.1151 34.6153L32.6769 35.8647ZM32.5162 34.7189C38.5129 38.4843 41.336 42.98 41.336 48.2H43.336C43.336 42.092 39.9671 37.0357 33.5798 33.0251L32.5162 34.7189ZM41.336 48.2C41.336 50.917 40.4046 53.2095 38.5248 55.1331L39.9552 56.5309C42.2034 54.2305 43.336 51.435 43.336 48.2H41.336ZM38.5248 55.1331C36.6506 57.0509 34.3892 58 31.68 58V60C34.9228 60 37.7014 58.8371 39.9552 56.5309L38.5248 55.1331ZM31.68 58C28.9703 58 26.6803 57.0501 24.7551 55.1249L23.3409 56.5391C25.6397 58.8379 28.4377 60 31.68 60V58ZM24.7632 55.1331C22.8834 53.2095 21.952 50.917 21.952 48.2H19.952C19.952 51.435 21.0846 54.2305 23.3328 56.5309L24.7632 55.1331ZM44.1562 48.2H43.1562V48.818L43.709 49.0944L44.1562 48.2ZM44.1562 2.984L43.9414 2.00735L43.1562 2.18008V2.984H44.1562ZM51.3563 1.4H52.3563V0.156085L51.1414 0.423355L51.3563 1.4ZM51.3563 51.8L50.909 52.6944L52.3563 53.418V51.8H51.3563ZM45.1562 48.2V2.984H43.1562V48.2H45.1562ZM44.3711 3.96064L51.5711 2.37664L51.1414 0.423355L43.9414 2.00735L44.3711 3.96064ZM50.3563 1.4V51.8H52.3563V1.4H50.3563ZM51.8035 50.9056L44.6035 47.3056L43.709 49.0944L50.909 52.6944L51.8035 50.9056ZM63.9563 48.2H64.9563V47.2H63.9563V48.2ZM60.7163 55.832L60.0171 55.1169L60.0091 55.1249L60.7163 55.832ZM45.5243 55.832L44.8171 56.5392L44.8251 56.547L45.5243 55.832ZM42.3563 48.2V47.2H41.3563V48.2H42.3563ZM49.5563 48.2H50.5563V47.2H49.5563V48.2ZM50.5643 50.792L49.8332 51.4743L49.8567 51.4995L49.8819 51.5231L50.5643 50.792ZM55.6763 50.792L54.9691 50.0849L55.6763 50.792ZM56.7563 48.2V47.2H55.7563V48.2H56.7563ZM50.5643 65.12L51.2714 64.4129L50.5643 65.12ZM55.6763 65.12L54.9939 64.3889L54.9687 64.4125L54.9452 64.4377L55.6763 65.12ZM55.6763 60.008L54.9691 60.7151L55.6763 60.008ZM50.5643 60.008L49.8819 59.2769L49.8567 59.3005L49.8332 59.3257L50.5643 60.008ZM45.5243 54.968L44.8251 54.2529L44.8171 54.2609L45.5243 54.968ZM60.7163 54.968L60.0091 55.6751L60.7163 54.968ZM60.7163 70.232L60.0091 69.5249L60.7163 70.232ZM45.5243 70.232L44.8171 70.9391L44.8251 70.947L45.5243 70.232ZM56.7563 51.8H55.7563V53.418L57.2035 52.6944L56.7563 51.8ZM56.7563 1.4L56.9711 0.423355L55.7563 0.156085V1.4H56.7563ZM63.9563 2.984H64.9563V2.18008L64.1711 2.00735L63.9563 2.984ZM63.9563 48.2L64.4035 49.0944L64.9563 48.818V48.2H63.9563ZM72.5963 51.8H73.5963V50.8H72.5963V51.8ZM72.5963 59V60H73.5963V59H72.5963ZM53.1563 59L52.2618 58.5528L51.5382 60H53.1563V59ZM56.7563 51.8V50.8H56.1382L55.8618 51.3528L56.7563 51.8ZM62.9563 48.2C62.9563 50.9023 61.988 53.1899 60.0171 55.117L61.4154 56.547C63.7645 54.2501 64.9563 51.4497 64.9563 48.2H62.9563ZM60.0091 55.1249C58.0805 57.0536 55.8131 58 53.1563 58V60C56.3554 60 59.128 58.8344 61.4234 56.5391L60.0091 55.1249ZM53.1563 58C50.4987 58 48.2031 57.0528 46.2234 55.117L44.8251 56.547C47.1654 58.8352 49.9578 60 53.1563 60V58ZM46.2314 55.1249C44.3061 53.1997 43.3563 50.9097 43.3563 48.2H41.3563C41.3563 51.4423 42.5184 54.2403 44.8171 56.5391L46.2314 55.1249ZM42.3563 49.2H49.5563V47.2H42.3563V49.2ZM48.5563 48.2C48.5563 49.4547 48.9839 50.5644 49.8332 51.4743L51.2953 50.1097C50.8006 49.5796 50.5563 48.9613 50.5563 48.2H48.5563ZM49.8819 51.5231C50.7919 52.3723 51.9016 52.8 53.1563 52.8V50.8C52.395 50.8 51.7766 50.5557 51.2466 50.0609L49.8819 51.5231ZM53.1563 52.8C54.4116 52.8 55.5116 52.3709 56.3834 51.4991L54.9691 50.0849C54.4969 50.5571 53.9169 50.8 53.1563 50.8V52.8ZM56.3834 51.4991C57.2888 50.5937 57.7563 49.4762 57.7563 48.2H55.7563C55.7563 48.9398 55.5037 49.5503 54.9691 50.0849L56.3834 51.4991ZM56.7563 49.2H63.9563V47.2H56.7563V49.2ZM48.5563 62.6C48.5563 63.8554 48.9854 64.9553 49.8571 65.8271L51.2714 64.4129C50.7992 63.9407 50.5563 63.3606 50.5563 62.6H48.5563ZM49.8571 65.8271C50.7625 66.7325 51.88 67.2 53.1563 67.2V65.2C52.4165 65.2 51.806 64.9475 51.2714 64.4129L49.8571 65.8271ZM53.1563 67.2C54.4341 67.2 55.5412 66.7303 56.4073 65.8023L54.9452 64.4377C54.4673 64.9497 53.8944 65.2 53.1563 65.2V67.2ZM56.3586 65.8511C57.2865 64.985 57.7563 63.8778 57.7563 62.6H55.7563C55.7563 63.3382 55.506 63.911 54.9939 64.3889L56.3586 65.8511ZM57.7563 62.6C57.7563 61.3238 57.2888 60.2063 56.3834 59.3009L54.9691 60.7151C55.5037 61.2497 55.7563 61.8602 55.7563 62.6H57.7563ZM56.3834 59.3009C55.5116 58.4291 54.4116 58 53.1563 58V60C53.9169 60 54.4969 60.2429 54.9691 60.7151L56.3834 59.3009ZM53.1563 58C51.9016 58 50.7919 58.4277 49.8819 59.2769L51.2466 60.7391C51.7766 60.2443 52.395 60 53.1563 60V58ZM49.8332 59.3257C48.9839 60.2356 48.5563 61.3453 48.5563 62.6H50.5563C50.5563 61.8387 50.8006 61.2204 51.2953 60.6903L49.8332 59.3257ZM43.3563 62.6C43.3563 59.8903 44.3061 57.6003 46.2314 55.6751L44.8171 54.2609C42.5184 56.5597 41.3563 59.3577 41.3563 62.6H43.3563ZM46.2234 55.683C48.2031 53.7472 50.4987 52.8 53.1563 52.8V50.8C49.9578 50.8 47.1654 51.9648 44.8251 54.253L46.2234 55.683ZM53.1563 52.8C55.8131 52.8 58.0805 53.7464 60.0091 55.6751L61.4234 54.2609C59.128 51.9656 56.3554 50.8 53.1563 50.8V52.8ZM60.0091 55.6751C61.9344 57.6003 62.8843 59.8903 62.8843 62.6H64.8843C64.8843 59.3577 63.7221 56.5597 61.4234 54.2609L60.0091 55.6751ZM62.8843 62.6C62.8843 65.3097 61.9344 67.5997 60.0091 69.5249L61.4234 70.9391C63.7221 68.6403 64.8843 65.8423 64.8843 62.6H62.8843ZM60.0091 69.5249C58.0805 71.4536 55.8131 72.4 53.1563 72.4V74.4C56.3554 74.4 59.128 73.2344 61.4234 70.9391L60.0091 69.5249ZM53.1563 72.4C50.4987 72.4 48.2031 71.4528 46.2234 69.517L44.8251 70.947C47.1654 73.2352 49.9578 74.4 53.1563 74.4V72.4ZM46.2314 69.5249C44.3061 67.5997 43.3563 65.3097 43.3563 62.6H41.3563C41.3563 65.8423 42.5184 68.6403 44.8171 70.9391L46.2314 69.5249ZM57.7563 51.8V1.4H55.7563V51.8H57.7563ZM56.5414 2.37664L63.7414 3.96064L64.1711 2.00735L56.9711 0.423355L56.5414 2.37664ZM62.9563 2.984V48.2H64.9563V2.984H62.9563ZM63.509 47.3056L56.309 50.9056L57.2035 52.6944L64.4035 49.0944L63.509 47.3056ZM71.5963 51.8V59H73.5963V51.8H71.5963ZM72.5963 58H53.1563V60H72.5963V58ZM54.0507 59.4472L57.6507 52.2472L55.8618 51.3528L52.2618 58.5528L54.0507 59.4472ZM56.7563 52.8H72.5963V50.8H56.7563V52.8ZM112.542 37.4H113.542V36.1561L112.327 36.4234L112.542 37.4ZM111.102 58.856L111.202 59.851L111.102 58.856ZM109.662 59V60H109.712L109.762 59.995L109.662 59ZM67.9022 59H66.9022V60H67.9022V59ZM67.9022 51.8V50.8H66.9022V51.8H67.9022ZM76.5422 51.8V52.8H77.5422V51.8H76.5422ZM76.5422 38.984L76.3273 38.0074L75.5422 38.1801V38.984H76.5422ZM83.7422 37.4H84.7422V36.1561L83.5273 36.4234L83.7422 37.4ZM83.7422 51.8H82.7422V52.8H83.7422V51.8ZM90.9422 51.8V52.8H91.9422V51.8H90.9422ZM90.9422 38.984L90.7273 38.0074L89.9422 38.1801V38.984H90.9422ZM98.1422 37.4H99.1422V36.1561L97.9273 36.4234L98.1422 37.4ZM98.1422 51.8H97.1422V52.8H98.1422V51.8ZM105.342 51.8V52.8H106.342V51.8H105.342ZM105.342 38.984L105.127 38.0074L104.342 38.1801V38.984H105.342ZM111.542 37.4V57.344H113.542V37.4H111.542ZM111.542 57.344C111.542 57.6254 111.471 57.7023 111.458 57.7163C111.437 57.7384 111.336 57.8276 111.003 57.861L111.202 59.851C111.828 59.7884 112.447 59.5776 112.906 59.0957C113.373 58.6057 113.542 57.9746 113.542 57.344H111.542ZM111.003 57.861C111.001 57.8611 110.999 57.8613 110.997 57.8615C110.995 57.8617 110.993 57.8619 110.991 57.8621C110.99 57.8623 110.988 57.8625 110.986 57.8626C110.984 57.8628 110.982 57.863 110.98 57.8632C110.978 57.8634 110.977 57.8636 110.975 57.8638C110.973 57.8639 110.971 57.8641 110.969 57.8643C110.967 57.8645 110.965 57.8647 110.964 57.8649C110.962 57.8651 110.96 57.8652 110.958 57.8654C110.956 57.8656 110.954 57.8658 110.953 57.866C110.951 57.8662 110.949 57.8663 110.947 57.8665C110.945 57.8667 110.943 57.8669 110.941 57.8671C110.94 57.8673 110.938 57.8675 110.936 57.8676C110.934 57.8678 110.932 57.868 110.93 57.8682C110.929 57.8684 110.927 57.8685 110.925 57.8687C110.923 57.8689 110.921 57.8691 110.92 57.8693C110.918 57.8695 110.916 57.8696 110.914 57.8698C110.912 57.87 110.91 57.8702 110.909 57.8704C110.907 57.8705 110.905 57.8707 110.903 57.8709C110.901 57.8711 110.9 57.8713 110.898 57.8715C110.896 57.8716 110.894 57.8718 110.892 57.872C110.891 57.8722 110.889 57.8724 110.887 57.8725C110.885 57.8727 110.883 57.8729 110.882 57.8731C110.88 57.8733 110.878 57.8734 110.876 57.8736C110.874 57.8738 110.873 57.874 110.871 57.8741C110.869 57.8743 110.867 57.8745 110.865 57.8747C110.864 57.8749 110.862 57.875 110.86 57.8752C110.858 57.8754 110.857 57.8756 110.855 57.8758C110.853 57.8759 110.851 57.8761 110.849 57.8763C110.848 57.8765 110.846 57.8766 110.844 57.8768C110.842 57.877 110.841 57.8772 110.839 57.8773C110.837 57.8775 110.835 57.8777 110.834 57.8779C110.832 57.878 110.83 57.8782 110.828 57.8784C110.827 57.8786 110.825 57.8787 110.823 57.8789C110.821 57.8791 110.82 57.8793 110.818 57.8795C110.816 57.8796 110.814 57.8798 110.813 57.88C110.811 57.8802 110.809 57.8803 110.807 57.8805C110.806 57.8807 110.804 57.8808 110.802 57.881C110.8 57.8812 110.799 57.8814 110.797 57.8815C110.795 57.8817 110.793 57.8819 110.792 57.8821C110.79 57.8822 110.788 57.8824 110.786 57.8826C110.785 57.8828 110.783 57.8829 110.781 57.8831C110.78 57.8833 110.778 57.8834 110.776 57.8836C110.774 57.8838 110.773 57.884 110.771 57.8841C110.769 57.8843 110.768 57.8845 110.766 57.8847C110.764 57.8848 110.762 57.885 110.761 57.8852C110.759 57.8853 110.757 57.8855 110.756 57.8857C110.754 57.8858 110.752 57.886 110.75 57.8862C110.749 57.8864 110.747 57.8865 110.745 57.8867C110.744 57.8869 110.742 57.887 110.74 57.8872C110.739 57.8874 110.737 57.8875 110.735 57.8877C110.733 57.8879 110.732 57.8881 110.73 57.8882C110.728 57.8884 110.727 57.8886 110.725 57.8887C110.723 57.8889 110.722 57.8891 110.72 57.8892C110.718 57.8894 110.717 57.8896 110.715 57.8897C110.713 57.8899 110.712 57.8901 110.71 57.8902C110.708 57.8904 110.707 57.8906 110.705 57.8907C110.703 57.8909 110.702 57.8911 110.7 57.8912C110.698 57.8914 110.697 57.8916 110.695 57.8917C110.693 57.8919 110.692 57.8921 110.69 57.8922C110.688 57.8924 110.687 57.8926 110.685 57.8927C110.683 57.8929 110.682 57.8931 110.68 57.8932C110.678 57.8934 110.677 57.8936 110.675 57.8937C110.673 57.8939 110.672 57.8941 110.67 57.8942C110.668 57.8944 110.667 57.8946 110.665 57.8947C110.664 57.8949 110.662 57.895 110.66 57.8952C110.659 57.8954 110.657 57.8955 110.655 57.8957C110.654 57.8959 110.652 57.896 110.65 57.8962C110.649 57.8963 110.647 57.8965 110.646 57.8967C110.644 57.8968 110.642 57.897 110.641 57.8972C110.639 57.8973 110.637 57.8975 110.636 57.8976C110.634 57.8978 110.633 57.898 110.631 57.8981C110.629 57.8983 110.628 57.8985 110.626 57.8986C110.625 57.8988 110.623 57.8989 110.621 57.8991C110.62 57.8993 110.618 57.8994 110.617 57.8996C110.615 57.8997 110.613 57.8999 110.612 57.9001C110.61 57.9002 110.609 57.9004 110.607 57.9005C110.605 57.9007 110.604 57.9009 110.602 57.901C110.601 57.9012 110.599 57.9013 110.597 57.9015C110.596 57.9017 110.594 57.9018 110.593 57.902C110.591 57.9021 110.589 57.9023 110.588 57.9024C110.586 57.9026 110.585 57.9028 110.583 57.9029C110.582 57.9031 110.58 57.9032 110.578 57.9034C110.577 57.9036 110.575 57.9037 110.574 57.9039C110.572 57.904 110.571 57.9042 110.569 57.9043C110.567 57.9045 110.566 57.9047 110.564 57.9048C110.563 57.905 110.561 57.9051 110.56 57.9053C110.558 57.9054 110.556 57.9056 110.555 57.9057C110.553 57.9059 110.552 57.9061 110.55 57.9062C110.549 57.9064 110.547 57.9065 110.546 57.9067C110.544 57.9068 110.542 57.907 110.541 57.9071C110.539 57.9073 110.538 57.9074 110.536 57.9076C110.535 57.9078 110.533 57.9079 110.532 57.9081C110.53 57.9082 110.529 57.9084 110.527 57.9085C110.526 57.9087 110.524 57.9088 110.522 57.909C110.521 57.9091 110.519 57.9093 110.518 57.9094C110.516 57.9096 110.515 57.9097 110.513 57.9099C110.512 57.9101 110.51 57.9102 110.509 57.9104C110.507 57.9105 110.506 57.9107 110.504 57.9108C110.503 57.911 110.501 57.9111 110.5 57.9113C110.498 57.9114 110.497 57.9116 110.495 57.9117C110.494 57.9119 110.492 57.912 110.491 57.9122C110.489 57.9123 110.488 57.9125 110.486 57.9126C110.485 57.9128 110.483 57.9129 110.482 57.9131C110.48 57.9132 110.479 57.9134 110.477 57.9135C110.476 57.9137 110.474 57.9138 110.473 57.914C110.471 57.9141 110.47 57.9143 110.468 57.9144C110.467 57.9146 110.465 57.9147 110.464 57.9149C110.462 57.915 110.461 57.9152 110.459 57.9153C110.458 57.9155 110.456 57.9156 110.455 57.9157C110.453 57.9159 110.452 57.916 110.45 57.9162C110.449 57.9163 110.447 57.9165 110.446 57.9166C110.445 57.9168 110.443 57.9169 110.442 57.9171C110.44 57.9172 110.439 57.9174 110.437 57.9175C110.436 57.9177 110.434 57.9178 110.433 57.9179C110.431 57.9181 110.43 57.9182 110.428 57.9184C110.427 57.9185 110.426 57.9187 110.424 57.9188C110.423 57.919 110.421 57.9191 110.42 57.9193C110.418 57.9194 110.417 57.9195 110.415 57.9197C110.414 57.9198 110.413 57.92 110.411 57.9201C110.41 57.9203 110.408 57.9204 110.407 57.9206C110.405 57.9207 110.404 57.9208 110.402 57.921C110.401 57.9211 110.4 57.9213 110.398 57.9214C110.397 57.9216 110.395 57.9217 110.394 57.9218C110.392 57.922 110.391 57.9221 110.39 57.9223C110.388 57.9224 110.387 57.9226 110.385 57.9227C110.384 57.9228 110.383 57.923 110.381 57.9231C110.38 57.9233 110.378 57.9234 110.377 57.9235C110.375 57.9237 110.374 57.9238 110.373 57.924C110.371 57.9241 110.37 57.9242 110.368 57.9244C110.367 57.9245 110.366 57.9247 110.364 57.9248C110.363 57.9249 110.361 57.9251 110.36 57.9252C110.359 57.9254 110.357 57.9255 110.356 57.9256C110.355 57.9258 110.353 57.9259 110.352 57.9261C110.35 57.9262 110.349 57.9263 110.348 57.9265C110.346 57.9266 110.345 57.9268 110.343 57.9269C110.342 57.927 110.341 57.9272 110.339 57.9273C110.338 57.9274 110.337 57.9276 110.335 57.9277C110.334 57.9279 110.332 57.928 110.331 57.9281C110.33 57.9283 110.328 57.9284 110.327 57.9285C110.326 57.9287 110.324 57.9288 110.323 57.9289C110.321 57.9291 110.32 57.9292 110.319 57.9294C110.317 57.9295 110.316 57.9296 110.315 57.9298C110.313 57.9299 110.312 57.93 110.311 57.9302C110.309 57.9303 110.308 57.9304 110.307 57.9306C110.305 57.9307 110.304 57.9308 110.303 57.931C110.301 57.9311 110.3 57.9312 110.299 57.9314C110.297 57.9315 110.296 57.9316 110.295 57.9318C110.293 57.9319 110.292 57.932 110.291 57.9322C110.289 57.9323 110.288 57.9324 110.287 57.9326C110.285 57.9327 110.284 57.9328 110.283 57.933C110.281 57.9331 110.28 57.9332 110.279 57.9334C110.277 57.9335 110.276 57.9336 110.275 57.9338C110.273 57.9339 110.272 57.934 110.271 57.9342C110.269 57.9343 110.268 57.9344 110.267 57.9346C110.265 57.9347 110.264 57.9348 110.263 57.935C110.261 57.9351 110.26 57.9352 110.259 57.9353C110.258 57.9355 110.256 57.9356 110.255 57.9357C110.254 57.9359 110.252 57.936 110.251 57.9361C110.25 57.9363 110.248 57.9364 110.247 57.9365C110.246 57.9366 110.245 57.9368 110.243 57.9369C110.242 57.937 110.241 57.9372 110.239 57.9373C110.238 57.9374 110.237 57.9375 110.236 57.9377C110.234 57.9378 110.233 57.9379 110.232 57.9381C110.23 57.9382 110.229 57.9383 110.228 57.9384C110.227 57.9386 110.225 57.9387 110.224 57.9388C110.223 57.9389 110.222 57.9391 110.22 57.9392C110.219 57.9393 110.218 57.9395 110.217 57.9396C110.215 57.9397 110.214 57.9398 110.213 57.94C110.211 57.9401 110.21 57.9402 110.209 57.9403C110.208 57.9405 110.206 57.9406 110.205 57.9407C110.204 57.9408 110.203 57.941 110.201 57.9411C110.2 57.9412 110.199 57.9413 110.198 57.9415C110.196 57.9416 110.195 57.9417 110.194 57.9418C110.193 57.942 110.191 57.9421 110.19 57.9422C110.189 57.9423 110.188 57.9425 110.187 57.9426C110.185 57.9427 110.184 57.9428 110.183 57.9429C110.182 57.9431 110.18 57.9432 110.179 57.9433C110.178 57.9434 110.177 57.9436 110.175 57.9437C110.174 57.9438 110.173 57.9439 110.172 57.944C110.171 57.9442 110.169 57.9443 110.168 57.9444C110.167 57.9445 110.166 57.9447 110.165 57.9448C110.163 57.9449 110.162 57.945 110.161 57.9451C110.16 57.9453 110.158 57.9454 110.157 57.9455C110.156 57.9456 110.155 57.9457 110.154 57.9459C110.152 57.946 110.151 57.9461 110.15 57.9462C110.149 57.9463 110.148 57.9465 110.146 57.9466C110.145 57.9467 110.144 57.9468 110.143 57.9469C110.142 57.9471 110.141 57.9472 110.139 57.9473C110.138 57.9474 110.137 57.9475 110.136 57.9477C110.135 57.9478 110.133 57.9479 110.132 57.948C110.131 57.9481 110.13 57.9482 110.129 57.9484C110.128 57.9485 110.126 57.9486 110.125 57.9487C110.124 57.9488 110.123 57.9489 110.122 57.9491C110.121 57.9492 110.119 57.9493 110.118 57.9494C110.117 57.9495 110.116 57.9496 110.115 57.9498C110.114 57.9499 110.112 57.95 110.111 57.9501C110.11 57.9502 110.109 57.9503 110.108 57.9505C110.107 57.9506 110.105 57.9507 110.104 57.9508C110.103 57.9509 110.102 57.951 110.101 57.9511C110.1 57.9513 110.099 57.9514 110.097 57.9515C110.096 57.9516 110.095 57.9517 110.094 57.9518C110.093 57.9519 110.092 57.9521 110.091 57.9522C110.089 57.9523 110.088 57.9524 110.087 57.9525C110.086 57.9526 110.085 57.9527 110.084 57.9529C110.083 57.953 110.082 57.9531 110.08 57.9532C110.079 57.9533 110.078 57.9534 110.077 57.9535C110.076 57.9536 110.075 57.9538 110.074 57.9539C110.073 57.954 110.071 57.9541 110.07 57.9542C110.069 57.9543 110.068 57.9544 110.067 57.9545C110.066 57.9546 110.065 57.9548 110.064 57.9549C110.063 57.955 110.061 57.9551 110.06 57.9552C110.059 57.9553 110.058 57.9554 110.057 57.9555C110.056 57.9556 110.055 57.9557 110.054 57.9559C110.053 57.956 110.052 57.9561 110.05 57.9562C110.049 57.9563 110.048 57.9564 110.047 57.9565C110.046 57.9566 110.045 57.9567 110.044 57.9568C110.043 57.9569 110.042 57.9571 110.041 57.9572C110.04 57.9573 110.039 57.9574 110.037 57.9575C110.036 57.9576 110.035 57.9577 110.034 57.9578C110.033 57.9579 110.032 57.958 110.031 57.9581C110.03 57.9582 110.029 57.9583 110.028 57.9584C110.027 57.9586 110.026 57.9587 110.025 57.9588C110.024 57.9589 110.023 57.959 110.021 57.9591C110.02 57.9592 110.019 57.9593 110.018 57.9594C110.017 57.9595 110.016 57.9596 110.015 57.9597C110.014 57.9598 110.013 57.9599 110.012 57.96C110.011 57.9601 110.01 57.9602 110.009 57.9603C110.008 57.9604 110.007 57.9606 110.006 57.9607C110.005 57.9608 110.004 57.9609 110.003 57.961C110.002 57.9611 110.001 57.9612 110 57.9613C109.998 57.9614 109.997 57.9615 109.996 57.9616C109.995 57.9617 109.994 57.9618 109.993 57.9619C109.992 57.962 109.991 57.9621 109.99 57.9622C109.989 57.9623 109.988 57.9624 109.987 57.9625C109.986 57.9626 109.985 57.9627 109.984 57.9628C109.983 57.9629 109.982 57.963 109.981 57.9631C109.98 57.9632 109.979 57.9633 109.978 57.9634C109.977 57.9635 109.976 57.9636 109.975 57.9637C109.974 57.9638 109.973 57.9639 109.972 57.964C109.971 57.9641 109.97 57.9642 109.969 57.9643C109.968 57.9644 109.967 57.9645 109.966 57.9646C109.965 57.9647 109.964 57.9648 109.963 57.9649C109.962 57.965 109.961 57.9651 109.96 57.9652C109.959 57.9653 109.958 57.9654 109.957 57.9655C109.956 57.9656 109.955 57.9657 109.954 57.9658C109.953 57.9659 109.952 57.966 109.951 57.9661C109.95 57.9662 109.949 57.9663 109.948 57.9664C109.947 57.9665 109.947 57.9666 109.946 57.9667C109.945 57.9668 109.944 57.9669 109.943 57.967C109.942 57.9671 109.941 57.9672 109.94 57.9673C109.939 57.9674 109.938 57.9674 109.937 57.9675C109.936 57.9676 109.935 57.9677 109.934 57.9678C109.933 57.9679 109.932 57.968 109.931 57.9681C109.93 57.9682 109.929 57.9683 109.928 57.9684C109.927 57.9685 109.926 57.9686 109.925 57.9687C109.925 57.9688 109.924 57.9689 109.923 57.969C109.922 57.9691 109.921 57.9692 109.92 57.9692C109.919 57.9693 109.918 57.9694 109.917 57.9695C109.916 57.9696 109.915 57.9697 109.914 57.9698C109.913 57.9699 109.912 57.97 109.912 57.9701C109.911 57.9702 109.91 57.9703 109.909 57.9704C109.908 57.9704 109.907 57.9705 109.906 57.9706C109.905 57.9707 109.904 57.9708 109.903 57.9709C109.902 57.971 109.901 57.9711 109.901 57.9712C109.9 57.9713 109.899 57.9714 109.898 57.9715C109.897 57.9715 109.896 57.9716 109.895 57.9717C109.894 57.9718 109.893 57.9719 109.892 57.972C109.892 57.9721 109.891 57.9722 109.89 57.9723C109.889 57.9723 109.888 57.9724 109.887 57.9725C109.886 57.9726 109.885 57.9727 109.884 57.9728C109.883 57.9729 109.883 57.973 109.882 57.9731C109.881 57.9731 109.88 57.9732 109.879 57.9733C109.878 57.9734 109.877 57.9735 109.876 57.9736C109.876 57.9737 109.875 57.9738 109.874 57.9738C109.873 57.9739 109.872 57.974 109.871 57.9741C109.87 57.9742 109.869 57.9743 109.869 57.9744C109.868 57.9745 109.867 57.9745 109.866 57.9746C109.865 57.9747 109.864 57.9748 109.863 57.9749C109.863 57.975 109.862 57.9751 109.861 57.9751C109.86 57.9752 109.859 57.9753 109.858 57.9754C109.857 57.9755 109.857 57.9756 109.856 57.9757C109.855 57.9757 109.854 57.9758 109.853 57.9759C109.852 57.976 109.852 57.9761 109.851 57.9762C109.85 57.9762 109.849 57.9763 109.848 57.9764C109.847 57.9765 109.847 57.9766 109.846 57.9767C109.845 57.9767 109.844 57.9768 109.843 57.9769C109.842 57.977 109.842 57.9771 109.841 57.9772C109.84 57.9772 109.839 57.9773 109.838 57.9774C109.837 57.9775 109.837 57.9776 109.836 57.9776C109.835 57.9777 109.834 57.9778 109.833 57.9779C109.833 57.978 109.832 57.9781 109.831 57.9781C109.83 57.9782 109.829 57.9783 109.829 57.9784C109.828 57.9785 109.827 57.9785 109.826 57.9786C109.825 57.9787 109.825 57.9788 109.824 57.9789C109.823 57.9789 109.822 57.979 109.821 57.9791C109.821 57.9792 109.82 57.9793 109.819 57.9793C109.818 57.9794 109.817 57.9795 109.817 57.9796C109.816 57.9796 109.815 57.9797 109.814 57.9798C109.813 57.9799 109.813 57.98 109.812 57.98C109.811 57.9801 109.81 57.9802 109.81 57.9803C109.809 57.9804 109.808 57.9804 109.807 57.9805C109.806 57.9806 109.806 57.9807 109.805 57.9807C109.804 57.9808 109.803 57.9809 109.803 57.981C109.802 57.981 109.801 57.9811 109.8 57.9812C109.8 57.9813 109.799 57.9813 109.798 57.9814C109.797 57.9815 109.797 57.9816 109.796 57.9817C109.795 57.9817 109.794 57.9818 109.794 57.9819C109.793 57.982 109.792 57.982 109.791 57.9821C109.791 57.9822 109.79 57.9823 109.789 57.9823C109.788 57.9824 109.788 57.9825 109.787 57.9825C109.786 57.9826 109.785 57.9827 109.785 57.9828C109.784 57.9828 109.783 57.9829 109.782 57.983C109.782 57.9831 109.781 57.9831 109.78 57.9832C109.779 57.9833 109.779 57.9834 109.778 57.9834C109.777 57.9835 109.777 57.9836 109.776 57.9836C109.775 57.9837 109.774 57.9838 109.774 57.9839C109.773 57.9839 109.772 57.984 109.772 57.9841C109.771 57.9841 109.77 57.9842 109.769 57.9843C109.769 57.9844 109.768 57.9844 109.767 57.9845C109.767 57.9846 109.766 57.9846 109.765 57.9847C109.764 57.9848 109.764 57.9849 109.763 57.9849C109.762 57.985 109.762 57.9851 109.761 57.9851C109.76 57.9852 109.76 57.9853 109.759 57.9853C109.758 57.9854 109.758 57.9855 109.757 57.9855C109.756 57.9856 109.755 57.9857 109.755 57.9858C109.754 57.9858 109.753 57.9859 109.753 57.986C109.752 57.986 109.751 57.9861 109.751 57.9862C109.75 57.9862 109.749 57.9863 109.749 57.9864C109.748 57.9864 109.747 57.9865 109.747 57.9866C109.746 57.9866 109.745 57.9867 109.745 57.9868C109.744 57.9868 109.743 57.9869 109.743 57.987C109.742 57.987 109.741 57.9871 109.741 57.9872C109.74 57.9872 109.739 57.9873 109.739 57.9874C109.738 57.9874 109.737 57.9875 109.737 57.9876C109.736 57.9876 109.735 57.9877 109.735 57.9878C109.734 57.9878 109.733 57.9879 109.733 57.9879C109.732 57.988 109.732 57.9881 109.731 57.9881C109.73 57.9882 109.73 57.9883 109.729 57.9883C109.728 57.9884 109.728 57.9885 109.727 57.9885C109.726 57.9886 109.726 57.9886 109.725 57.9887C109.725 57.9888 109.724 57.9888 109.723 57.9889C109.723 57.989 109.722 57.989 109.721 57.9891C109.721 57.9892 109.72 57.9892 109.72 57.9893C109.719 57.9893 109.718 57.9894 109.718 57.9895C109.717 57.9895 109.716 57.9896 109.716 57.9896C109.715 57.9897 109.715 57.9898 109.714 57.9898C109.713 57.9899 109.713 57.9899 109.712 57.99C109.712 57.9901 109.711 57.9901 109.71 57.9902C109.71 57.9902 109.709 57.9903 109.709 57.9904C109.708 57.9904 109.707 57.9905 109.707 57.9905C109.706 57.9906 109.706 57.9907 109.705 57.9907C109.704 57.9908 109.704 57.9908 109.703 57.9909C109.703 57.991 109.702 57.991 109.702 57.9911C109.701 57.9911 109.7 57.9912 109.7 57.9912C109.699 57.9913 109.699 57.9914 109.698 57.9914C109.698 57.9915 109.697 57.9915 109.696 57.9916C109.696 57.9917 109.695 57.9917 109.695 57.9918C109.694 57.9918 109.694 57.9919 109.693 57.9919C109.692 57.992 109.692 57.992 109.691 57.9921C109.691 57.9922 109.69 57.9922 109.69 57.9923C109.689 57.9923 109.688 57.9924 109.688 57.9924C109.687 57.9925 109.687 57.9925 109.686 57.9926C109.686 57.9927 109.685 57.9927 109.685 57.9928C109.684 57.9928 109.684 57.9929 109.683 57.9929C109.682 57.993 109.682 57.993 109.681 57.9931C109.681 57.9931 109.68 57.9932 109.68 57.9933C109.679 57.9933 109.679 57.9934 109.678 57.9934C109.678 57.9935 109.677 57.9935 109.677 57.9936C109.676 57.9936 109.676 57.9937 109.675 57.9937C109.674 57.9938 109.674 57.9938 109.673 57.9939C109.673 57.9939 109.672 57.994 109.672 57.994C109.671 57.9941 109.671 57.9941 109.67 57.9942C109.67 57.9942 109.669 57.9943 109.669 57.9944C109.668 57.9944 109.668 57.9944 109.667 57.9945C109.667 57.9946 109.666 57.9946 109.666 57.9947C109.665 57.9947 109.665 57.9948 109.664 57.9948C109.664 57.9949 109.663 57.9949 109.663 57.995C109.662 57.995 109.662 57.995 109.661 57.9951C109.661 57.9951 109.66 57.9952 109.66 57.9952C109.659 57.9953 109.659 57.9953 109.658 57.9954C109.658 57.9954 109.657 57.9955 109.657 57.9955C109.656 57.9956 109.656 57.9956 109.656 57.9957C109.655 57.9957 109.655 57.9958 109.654 57.9958C109.654 57.9959 109.653 57.9959 109.653 57.996C109.652 57.996 109.652 57.9961 109.651 57.9961C109.651 57.9962 109.65 57.9962 109.65 57.9962C109.649 57.9963 109.649 57.9963 109.649 57.9964C109.648 57.9964 109.648 57.9965 109.647 57.9965C109.647 57.9966 109.646 57.9966 109.646 57.9967C109.645 57.9967 109.645 57.9967 109.644 57.9968C109.644 57.9968 109.644 57.9969 109.643 57.9969C109.643 57.997 109.642 57.997 109.642 57.9971C109.641 57.9971 109.641 57.9971 109.64 57.9972C109.64 57.9972 109.64 57.9973 109.639 57.9973C109.639 57.9974 109.638 57.9974 109.638 57.9974C109.637 57.9975 109.637 57.9975 109.637 57.9976C109.636 57.9976 109.636 57.9977 109.635 57.9977C109.635 57.9977 109.634 57.9978 109.634 57.9978C109.634 57.9979 109.633 57.9979 109.633 57.9979C109.632 57.998 109.632 57.998 109.632 57.9981C109.631 57.9981 109.631 57.9982 109.63 57.9982C109.63 57.9982 109.63 57.9983 109.629 57.9983C109.629 57.9984 109.628 57.9984 109.628 57.9984C109.628 57.9985 109.627 57.9985 109.627 57.9986C109.626 57.9986 109.626 57.9986 109.626 57.9987C109.625 57.9987 109.625 57.9988 109.624 57.9988C109.624 57.9988 109.624 57.9989 109.623 57.9989C109.623 57.9989 109.622 57.999 109.622 57.999C109.622 57.9991 109.621 57.9991 109.621 57.9991C109.621 57.9992 109.62 57.9992 109.62 57.9992C109.619 57.9993 109.619 57.9993 109.619 57.9994C109.618 57.9994 109.618 57.9994 109.618 57.9995C109.617 57.9995 109.617 57.9995 109.617 57.9996C109.616 57.9996 109.616 57.9997 109.615 57.9997C109.615 57.9997 109.615 57.9998 109.614 57.9998C109.614 57.9998 109.614 57.9999 109.613 57.9999C109.613 57.9999 109.613 58 109.612 58C109.612 58 109.612 58.0001 109.611 58.0001C109.611 58.0001 109.611 58.0002 109.61 58.0002C109.61 58.0002 109.61 58.0003 109.609 58.0003C109.609 58.0003 109.609 58.0004 109.608 58.0004C109.608 58.0004 109.608 58.0005 109.607 58.0005C109.607 58.0005 109.607 58.0006 109.606 58.0006C109.606 58.0006 109.606 58.0007 109.605 58.0007C109.605 58.0007 109.605 58.0008 109.604 58.0008C109.604 58.0008 109.604 58.0009 109.603 58.0009C109.603 58.0009 109.603 58.001 109.602 58.001C109.602 58.001 109.602 58.0011 109.601 58.0011C109.601 58.0011 109.601 58.0011 109.601 58.0012C109.6 58.0012 109.6 58.0012 109.6 58.0013C109.599 58.0013 109.599 58.0013 109.599 58.0014C109.598 58.0014 109.598 58.0014 109.598 58.0014C109.598 58.0015 109.597 58.0015 109.597 58.0015C109.597 58.0016 109.596 58.0016 109.596 58.0016C109.596 58.0016 109.596 58.0017 109.595 58.0017C109.595 58.0017 109.595 58.0018 109.594 58.0018C109.594 58.0018 109.594 58.0018 109.594 58.0019C109.593 58.0019 109.593 58.0019 109.593 58.002C109.592 58.002 109.592 58.002 109.592 58.002C109.592 58.0021 109.591 58.0021 109.591 58.0021C109.591 58.0021 109.591 58.0022 109.59 58.0022C109.59 58.0022 109.59 58.0022 109.59 58.0023C109.589 58.0023 109.589 58.0023 109.589 58.0023C109.589 58.0024 109.588 58.0024 109.588 58.0024C109.588 58.0024 109.588 58.0025 109.587 58.0025C109.587 58.0025 109.587 58.0025 109.587 58.0026C109.586 58.0026 109.586 58.0026 109.586 58.0026C109.586 58.0027 109.585 58.0027 109.585 58.0027C109.585 58.0027 109.585 58.0028 109.584 58.0028C109.584 58.0028 109.584 58.0028 109.584 58.0028C109.584 58.0029 109.583 58.0029 109.583 58.0029C109.583 58.0029 109.583 58.003 109.582 58.003C109.582 58.003 109.582 58.003 109.582 58.0031C109.582 58.0031 109.581 58.0031 109.581 58.0031C109.581 58.0031 109.581 58.0032 109.581 58.0032C109.58 58.0032 109.58 58.0032 109.58 58.0032C109.58 58.0033 109.579 58.0033 109.579 58.0033C109.579 58.0033 109.579 58.0033 109.579 58.0034C109.579 58.0034 109.578 58.0034 109.578 58.0034C109.578 58.0034 109.578 58.0035 109.578 58.0035C109.577 58.0035 109.577 58.0035 109.577 58.0035C109.577 58.0036 109.577 58.0036 109.576 58.0036C109.576 58.0036 109.576 58.0036 109.576 58.0036C109.576 58.0037 109.576 58.0037 109.575 58.0037C109.575 58.0037 109.575 58.0037 109.575 58.0037C109.575 58.0038 109.574 58.0038 109.574 58.0038C109.574 58.0038 109.574 58.0038 109.574 58.0038C109.574 58.0039 109.573 58.0039 109.573 58.0039C109.573 58.0039 109.573 58.0039 109.573 58.0039C109.573 58.004 109.573 58.004 109.572 58.004C109.572 58.004 109.572 58.004 109.572 58.004C109.572 58.0041 109.572 58.0041 109.571 58.0041C109.571 58.0041 109.571 58.0041 109.571 58.0041C109.571 58.0041 109.571 58.0042 109.571 58.0042C109.57 58.0042 109.57 58.0042 109.57 58.0042C109.57 58.0042 109.57 58.0042 109.57 58.0042C109.57 58.0043 109.57 58.0043 109.569 58.0043C109.569 58.0043 109.569 58.0043 109.569 58.0043C109.569 58.0043 109.569 58.0044 109.569 58.0044C109.569 58.0044 109.568 58.0044 109.568 58.0044C109.568 58.0044 109.568 58.0044 109.568 58.0044C109.568 58.0044 109.568 58.0045 109.568 58.0045C109.568 58.0045 109.567 58.0045 109.567 58.0045C109.567 58.0045 109.567 58.0045 109.567 58.0045C109.567 58.0045 109.567 58.0046 109.567 58.0046C109.567 58.0046 109.566 58.0046 109.566 58.0046C109.566 58.0046 109.566 58.0046 109.566 58.0046C109.566 58.0046 109.566 58.0046 109.566 58.0046C109.566 58.0047 109.566 58.0047 109.566 58.0047C109.566 58.0047 109.565 58.0047 109.565 58.0047C109.565 58.0047 109.565 58.0047 109.565 58.0047C109.565 58.0047 109.565 58.0047 109.565 58.0047C109.565 58.0047 109.565 58.0048 109.565 58.0048C109.565 58.0048 109.565 58.0048 109.564 58.0048C109.564 58.0048 109.564 58.0048 109.564 58.0048C109.564 58.0048 109.564 58.0048 109.564 58.0048C109.564 58.0048 109.564 58.0048 109.564 58.0048C109.564 58.0048 109.564 58.0048 109.564 58.0049C109.564 58.0049 109.564 58.0049 109.564 58.0049C109.564 58.0049 109.564 58.0049 109.563 58.0049C109.563 58.0049 109.563 58.0049 109.563 58.0049C109.563 58.0049 109.563 58.0049 109.563 58.0049C109.563 58.0049 109.563 58.0049 109.563 58.0049C109.563 58.0049 109.563 58.0049 109.563 58.0049C109.563 58.0049 109.563 58.0049 109.563 58.0049C109.563 58.0049 109.563 58.0049 109.563 58.0049C109.563 58.0049 109.563 58.0049 109.563 58.0049C109.563 58.005 109.563 58.005 109.563 58.005C109.563 58.005 109.563 58.005 109.563 58.005C109.563 58.005 109.563 58.005 109.563 58.005C109.563 58.005 109.563 58.005 109.563 58.005C109.563 58.005 109.563 58.005 109.662 59C109.762 59.995 109.762 59.995 109.762 59.995C109.762 59.995 109.762 59.995 109.762 59.995C109.762 59.995 109.762 59.995 109.762 59.995C109.762 59.995 109.762 59.995 109.762 59.995C109.762 59.995 109.762 59.995 109.762 59.995C109.762 59.995 109.762 59.995 109.762 59.995C109.762 59.995 109.762 59.995 109.762 59.995C109.762 59.995 109.762 59.995 109.762 59.995C109.762 59.995 109.762 59.995 109.762 59.995C109.762 59.995 109.762 59.995 109.762 59.995C109.762 59.995 109.762 59.995 109.762 59.995C109.762 59.995 109.762 59.995 109.762 59.995C109.763 59.995 109.763 59.9949 109.763 59.9949C109.763 59.9949 109.763 59.9949 109.763 59.9949C109.763 59.9949 109.763 59.9949 109.763 59.9949C109.763 59.9949 109.763 59.9949 109.763 59.9949C109.763 59.9949 109.763 59.9949 109.763 59.9949C109.763 59.9949 109.763 59.9949 109.763 59.9949C109.764 59.9949 109.764 59.9948 109.764 59.9948C109.764 59.9948 109.764 59.9948 109.764 59.9948C109.764 59.9948 109.764 59.9948 109.764 59.9948C109.764 59.9948 109.764 59.9948 109.764 59.9948C109.764 59.9948 109.765 59.9948 109.765 59.9947C109.765 59.9947 109.765 59.9947 109.765 59.9947C109.765 59.9947 109.765 59.9947 109.765 59.9947C109.765 59.9947 109.765 59.9947 109.765 59.9947C109.765 59.9947 109.766 59.9946 109.766 59.9946C109.766 59.9946 109.766 59.9946 109.766 59.9946C109.766 59.9946 109.766 59.9946 109.766 59.9946C109.766 59.9946 109.767 59.9946 109.767 59.9945C109.767 59.9945 109.767 59.9945 109.767 59.9945C109.767 59.9945 109.767 59.9945 109.767 59.9945C109.767 59.9945 109.768 59.9944 109.768 59.9944C109.768 59.9944 109.768 59.9944 109.768 59.9944C109.768 59.9944 109.768 59.9944 109.768 59.9944C109.769 59.9944 109.769 59.9943 109.769 59.9943C109.769 59.9943 109.769 59.9943 109.769 59.9943C109.769 59.9943 109.769 59.9943 109.77 59.9942C109.77 59.9942 109.77 59.9942 109.77 59.9942C109.77 59.9942 109.77 59.9942 109.77 59.9942C109.771 59.9941 109.771 59.9941 109.771 59.9941C109.771 59.9941 109.771 59.9941 109.771 59.9941C109.772 59.9941 109.772 59.994 109.772 59.994C109.772 59.994 109.772 59.994 109.772 59.994C109.772 59.994 109.773 59.9939 109.773 59.9939C109.773 59.9939 109.773 59.9939 109.773 59.9939C109.773 59.9939 109.774 59.9938 109.774 59.9938C109.774 59.9938 109.774 59.9938 109.774 59.9938C109.775 59.9938 109.775 59.9937 109.775 59.9937C109.775 59.9937 109.775 59.9937 109.775 59.9937C109.776 59.9936 109.776 59.9936 109.776 59.9936C109.776 59.9936 109.776 59.9936 109.777 59.9936C109.777 59.9935 109.777 59.9935 109.777 59.9935C109.777 59.9935 109.778 59.9935 109.778 59.9934C109.778 59.9934 109.778 59.9934 109.778 59.9934C109.779 59.9934 109.779 59.9933 109.779 59.9933C109.779 59.9933 109.779 59.9933 109.78 59.9933C109.78 59.9932 109.78 59.9932 109.78 59.9932C109.78 59.9932 109.781 59.9931 109.781 59.9931C109.781 59.9931 109.781 59.9931 109.781 59.9931C109.782 59.993 109.782 59.993 109.782 59.993C109.782 59.993 109.783 59.9929 109.783 59.9929C109.783 59.9929 109.783 59.9929 109.783 59.9929C109.784 59.9928 109.784 59.9928 109.784 59.9928C109.784 59.9928 109.785 59.9927 109.785 59.9927C109.785 59.9927 109.785 59.9927 109.786 59.9926C109.786 59.9926 109.786 59.9926 109.786 59.9926C109.787 59.9925 109.787 59.9925 109.787 59.9925C109.787 59.9925 109.788 59.9924 109.788 59.9924C109.788 59.9924 109.788 59.9924 109.789 59.9923C109.789 59.9923 109.789 59.9923 109.789 59.9923C109.79 59.9922 109.79 59.9922 109.79 59.9922C109.79 59.9922 109.791 59.9921 109.791 59.9921C109.791 59.9921 109.791 59.9921 109.792 59.992C109.792 59.992 109.792 59.992 109.793 59.9919C109.793 59.9919 109.793 59.9919 109.793 59.9919C109.794 59.9918 109.794 59.9918 109.794 59.9918C109.795 59.9918 109.795 59.9917 109.795 59.9917C109.795 59.9917 109.796 59.9916 109.796 59.9916C109.796 59.9916 109.797 59.9916 109.797 59.9915C109.797 59.9915 109.797 59.9915 109.798 59.9914C109.798 59.9914 109.798 59.9914 109.799 59.9913C109.799 59.9913 109.799 59.9913 109.8 59.9913C109.8 59.9912 109.8 59.9912 109.8 59.9912C109.801 59.9911 109.801 59.9911 109.801 59.9911C109.802 59.991 109.802 59.991 109.802 59.991C109.803 59.9909 109.803 59.9909 109.803 59.9909C109.804 59.9908 109.804 59.9908 109.804 59.9908C109.805 59.9907 109.805 59.9907 109.805 59.9907C109.806 59.9907 109.806 59.9906 109.806 59.9906C109.807 59.9906 109.807 59.9905 109.807 59.9905C109.808 59.9905 109.808 59.9904 109.808 59.9904C109.809 59.9904 109.809 59.9903 109.809 59.9903C109.81 59.9903 109.81 59.9902 109.81 59.9902C109.811 59.9902 109.811 59.9901 109.811 59.9901C109.812 59.99 109.812 59.99 109.812 59.99C109.813 59.9899 109.813 59.9899 109.813 59.9899C109.814 59.9898 109.814 59.9898 109.814 59.9898C109.815 59.9897 109.815 59.9897 109.816 59.9897C109.816 59.9896 109.816 59.9896 109.817 59.9895C109.817 59.9895 109.817 59.9895 109.818 59.9894C109.818 59.9894 109.818 59.9894 109.819 59.9893C109.819 59.9893 109.82 59.9892 109.82 59.9892C109.82 59.9892 109.821 59.9891 109.821 59.9891C109.821 59.9891 109.822 59.989 109.822 59.989C109.823 59.9889 109.823 59.9889 109.823 59.9889C109.824 59.9888 109.824 59.9888 109.825 59.9887C109.825 59.9887 109.825 59.9887 109.826 59.9886C109.826 59.9886 109.827 59.9886 109.827 59.9885C109.827 59.9885 109.828 59.9884 109.828 59.9884C109.829 59.9883 109.829 59.9883 109.829 59.9883C109.83 59.9882 109.83 59.9882 109.831 59.9881C109.831 59.9881 109.831 59.9881 109.832 59.988C109.832 59.988 109.833 59.9879 109.833 59.9879C109.833 59.9879 109.834 59.9878 109.834 59.9878C109.835 59.9877 109.835 59.9877 109.836 59.9876C109.836 59.9876 109.836 59.9876 109.837 59.9875C109.837 59.9875 109.838 59.9874 109.838 59.9874C109.839 59.9873 109.839 59.9873 109.839 59.9873C109.84 59.9872 109.84 59.9872 109.841 59.9871C109.841 59.9871 109.842 59.987 109.842 59.987C109.843 59.9869 109.843 59.9869 109.843 59.9869C109.844 59.9868 109.844 59.9868 109.845 59.9867C109.845 59.9867 109.846 59.9866 109.846 59.9866C109.847 59.9865 109.847 59.9865 109.848 59.9865C109.848 59.9864 109.848 59.9864 109.849 59.9863C109.849 59.9863 109.85 59.9862 109.85 59.9862C109.851 59.9861 109.851 59.9861 109.852 59.986C109.852 59.986 109.853 59.9859 109.853 59.9859C109.854 59.9858 109.854 59.9858 109.855 59.9858C109.855 59.9857 109.855 59.9857 109.856 59.9856C109.856 59.9856 109.857 59.9855 109.857 59.9855C109.858 59.9854 109.858 59.9854 109.859 59.9853C109.859 59.9853 109.86 59.9852 109.86 59.9852C109.861 59.9851 109.861 59.9851 109.862 59.985C109.862 59.985 109.863 59.9849 109.863 59.9849C109.864 59.9848 109.864 59.9848 109.865 59.9847C109.865 59.9847 109.866 59.9846 109.866 59.9846C109.867 59.9845 109.867 59.9845 109.868 59.9844C109.868 59.9844 109.869 59.9843 109.869 59.9843C109.87 59.9842 109.87 59.9842 109.871 59.9841C109.871 59.9841 109.872 59.984 109.872 59.984C109.873 59.9839 109.873 59.9839 109.874 59.9838C109.875 59.9838 109.875 59.9837 109.876 59.9836C109.876 59.9836 109.877 59.9835 109.877 59.9835C109.878 59.9834 109.878 59.9834 109.879 59.9833C109.879 59.9833 109.88 59.9832 109.88 59.9832C109.881 59.9831 109.881 59.9831 109.882 59.983C109.883 59.983 109.883 59.9829 109.884 59.9828C109.884 59.9828 109.885 59.9827 109.885 59.9827C109.886 59.9826 109.886 59.9826 109.887 59.9825C109.887 59.9825 109.888 59.9824 109.889 59.9823C109.889 59.9823 109.89 59.9822 109.89 59.9822C109.891 59.9821 109.891 59.9821 109.892 59.982C109.893 59.982 109.893 59.9819 109.894 59.9818C109.894 59.9818 109.895 59.9817 109.895 59.9817C109.896 59.9816 109.897 59.9816 109.897 59.9815C109.898 59.9814 109.898 59.9814 109.899 59.9813C109.899 59.9813 109.9 59.9812 109.901 59.9812C109.901 59.9811 109.902 59.981 109.902 59.981C109.903 59.9809 109.903 59.9809 109.904 59.9808C109.905 59.9807 109.905 59.9807 109.906 59.9806C109.906 59.9806 109.907 59.9805 109.908 59.9804C109.908 59.9804 109.909 59.9803 109.909 59.9803C109.91 59.9802 109.911 59.9801 109.911 59.9801C109.912 59.98 109.912 59.98 109.913 59.9799C109.914 59.9798 109.914 59.9798 109.915 59.9797C109.915 59.9797 109.916 59.9796 109.917 59.9795C109.917 59.9795 109.918 59.9794 109.919 59.9793C109.919 59.9793 109.92 59.9792 109.92 59.9792C109.921 59.9791 109.922 59.979 109.922 59.979C109.923 59.9789 109.924 59.9788 109.924 59.9788C109.925 59.9787 109.925 59.9787 109.926 59.9786C109.927 59.9785 109.927 59.9785 109.928 59.9784C109.929 59.9783 109.929 59.9783 109.93 59.9782C109.931 59.9781 109.931 59.9781 109.932 59.978C109.932 59.978 109.933 59.9779 109.934 59.9778C109.934 59.9778 109.935 59.9777 109.936 59.9776C109.936 59.9776 109.937 59.9775 109.938 59.9774C109.938 59.9774 109.939 59.9773 109.94 59.9772C109.94 59.9772 109.941 59.9771 109.942 59.977C109.942 59.977 109.943 59.9769 109.944 59.9768C109.944 59.9768 109.945 59.9767 109.946 59.9766C109.946 59.9766 109.947 59.9765 109.948 59.9764C109.948 59.9764 109.949 59.9763 109.95 59.9762C109.95 59.9762 109.951 59.9761 109.952 59.976C109.952 59.976 109.953 59.9759 109.954 59.9758C109.954 59.9758 109.955 59.9757 109.956 59.9756C109.957 59.9756 109.957 59.9755 109.958 59.9754C109.959 59.9753 109.959 59.9753 109.96 59.9752C109.961 59.9751 109.961 59.9751 109.962 59.975C109.963 59.9749 109.963 59.9749 109.964 59.9748C109.965 59.9747 109.966 59.9746 109.966 59.9746C109.967 59.9745 109.968 59.9744 109.968 59.9744C109.969 59.9743 109.97 59.9742 109.971 59.9741C109.971 59.9741 109.972 59.974 109.973 59.9739C109.973 59.9739 109.974 59.9738 109.975 59.9737C109.976 59.9736 109.976 59.9736 109.977 59.9735C109.978 59.9734 109.978 59.9734 109.979 59.9733C109.98 59.9732 109.981 59.9731 109.981 59.9731C109.982 59.973 109.983 59.9729 109.984 59.9728C109.984 59.9728 109.985 59.9727 109.986 59.9726C109.987 59.9725 109.987 59.9725 109.988 59.9724C109.989 59.9723 109.99 59.9723 109.99 59.9722C109.991 59.9721 109.992 59.972 109.993 59.972C109.993 59.9719 109.994 59.9718 109.995 59.9717C109.996 59.9716 109.996 59.9716 109.997 59.9715C109.998 59.9714 109.999 59.9713 109.999 59.9713C110 59.9712 110.001 59.9711 110.002 59.971C110.002 59.971 110.003 59.9709 110.004 59.9708C110.005 59.9707 110.005 59.9707 110.006 59.9706C110.007 59.9705 110.008 59.9704 110.009 59.9703C110.009 59.9703 110.01 59.9702 110.011 59.9701C110.012 59.97 110.012 59.97 110.013 59.9699C110.014 59.9698 110.015 59.9697 110.016 59.9696C110.016 59.9696 110.017 59.9695 110.018 59.9694C110.019 59.9693 110.02 59.9692 110.02 59.9692C110.021 59.9691 110.022 59.969 110.023 59.9689C110.024 59.9689 110.024 59.9688 110.025 59.9687C110.026 59.9686 110.027 59.9685 110.028 59.9684C110.028 59.9684 110.029 59.9683 110.03 59.9682C110.031 59.9681 110.032 59.968 110.032 59.968C110.033 59.9679 110.034 59.9678 110.035 59.9677C110.036 59.9676 110.036 59.9676 110.037 59.9675C110.038 59.9674 110.039 59.9673 110.04 59.9672C110.041 59.9671 110.041 59.9671 110.042 59.967C110.043 59.9669 110.044 59.9668 110.045 59.9667C110.046 59.9666 110.046 59.9666 110.047 59.9665C110.048 59.9664 110.049 59.9663 110.05 59.9662C110.051 59.9661 110.051 59.9661 110.052 59.966C110.053 59.9659 110.054 59.9658 110.055 59.9657C110.056 59.9656 110.057 59.9656 110.057 59.9655C110.058 59.9654 110.059 59.9653 110.06 59.9652C110.061 59.9651 110.062 59.965 110.062 59.965C110.063 59.9649 110.064 59.9648 110.065 59.9647C110.066 59.9646 110.067 59.9645 110.068 59.9644C110.069 59.9644 110.069 59.9643 110.07 59.9642C110.071 59.9641 110.072 59.964 110.073 59.9639C110.074 59.9638 110.075 59.9637 110.075 59.9637C110.076 59.9636 110.077 59.9635 110.078 59.9634C110.079 59.9633 110.08 59.9632 110.081 59.9631C110.082 59.963 110.083 59.963 110.083 59.9629C110.084 59.9628 110.085 59.9627 110.086 59.9626C110.087 59.9625 110.088 59.9624 110.089 59.9623C110.09 59.9622 110.091 59.9622 110.091 59.9621C110.092 59.962 110.093 59.9619 110.094 59.9618C110.095 59.9617 110.096 59.9616 110.097 59.9615C110.098 59.9614 110.099 59.9613 110.1 59.9613C110.1 59.9612 110.101 59.9611 110.102 59.961C110.103 59.9609 110.104 59.9608 110.105 59.9607C110.106 59.9606 110.107 59.9605 110.108 59.9604C110.109 59.9603 110.11 59.9602 110.111 59.9602C110.111 59.9601 110.112 59.96 110.113 59.9599C110.114 59.9598 110.115 59.9597 110.116 59.9596C110.117 59.9595 110.118 59.9594 110.119 59.9593C110.12 59.9592 110.121 59.9591 110.122 59.959C110.123 59.9589 110.124 59.9589 110.125 59.9588C110.125 59.9587 110.126 59.9586 110.127 59.9585C110.128 59.9584 110.129 59.9583 110.13 59.9582C110.131 59.9581 110.132 59.958 110.133 59.9579C110.134 59.9578 110.135 59.9577 110.136 59.9576C110.137 59.9575 110.138 59.9574 110.139 59.9573C110.14 59.9572 110.141 59.9571 110.142 59.957C110.143 59.9569 110.144 59.9568 110.145 59.9568C110.146 59.9567 110.146 59.9566 110.147 59.9565C110.148 59.9564 110.149 59.9563 110.15 59.9562C110.151 59.9561 110.152 59.956 110.153 59.9559C110.154 59.9558 110.155 59.9557 110.156 59.9556C110.157 59.9555 110.158 59.9554 110.159 59.9553C110.16 59.9552 110.161 59.9551 110.162 59.955C110.163 59.9549 110.164 59.9548 110.165 59.9547C110.166 59.9546 110.167 59.9545 110.168 59.9544C110.169 59.9543 110.17 59.9542 110.171 59.9541C110.172 59.954 110.173 59.9539 110.174 59.9538C110.175 59.9537 110.176 59.9536 110.177 59.9535C110.178 59.9534 110.179 59.9533 110.18 59.9532C110.181 59.9531 110.182 59.953 110.183 59.9529C110.184 59.9528 110.185 59.9527 110.186 59.9526C110.187 59.9525 110.188 59.9524 110.189 59.9523C110.19 59.9522 110.191 59.9521 110.192 59.952C110.193 59.9519 110.194 59.9518 110.195 59.9517C110.196 59.9516 110.197 59.9515 110.199 59.9514C110.2 59.9513 110.201 59.9511 110.202 59.951C110.203 59.9509 110.204 59.9508 110.205 59.9507C110.206 59.9506 110.207 59.9505 110.208 59.9504C110.209 59.9503 110.21 59.9502 110.211 59.9501C110.212 59.95 110.213 59.9499 110.214 59.9498C110.215 59.9497 110.216 59.9496 110.217 59.9495C110.218 59.9494 110.219 59.9493 110.22 59.9492C110.222 59.9491 110.223 59.9489 110.224 59.9488C110.225 59.9487 110.226 59.9486 110.227 59.9485C110.228 59.9484 110.229 59.9483 110.23 59.9482C110.231 59.9481 110.232 59.948 110.233 59.9479C110.234 59.9478 110.235 59.9477 110.236 59.9476C110.238 59.9474 110.239 59.9473 110.24 59.9472C110.241 59.9471 110.242 59.947 110.243 59.9469C110.244 59.9468 110.245 59.9467 110.246 59.9466C110.247 59.9465 110.248 59.9464 110.25 59.9463C110.251 59.9461 110.252 59.946 110.253 59.9459C110.254 59.9458 110.255 59.9457 110.256 59.9456C110.257 59.9455 110.258 59.9454 110.259 59.9453C110.26 59.9452 110.262 59.945 110.263 59.9449C110.264 59.9448 110.265 59.9447 110.266 59.9446C110.267 59.9445 110.268 59.9444 110.269 59.9443C110.27 59.9442 110.272 59.944 110.273 59.9439C110.274 59.9438 110.275 59.9437 110.276 59.9436C110.277 59.9435 110.278 59.9434 110.279 59.9433C110.281 59.9432 110.282 59.943 110.283 59.9429C110.284 59.9428 110.285 59.9427 110.286 59.9426C110.287 59.9425 110.288 59.9424 110.29 59.9422C110.291 59.9421 110.292 59.942 110.293 59.9419C110.294 59.9418 110.295 59.9417 110.296 59.9416C110.298 59.9415 110.299 59.9413 110.3 59.9412C110.301 59.9411 110.302 59.941 110.303 59.9409C110.304 59.9408 110.306 59.9406 110.307 59.9405C110.308 59.9404 110.309 59.9403 110.31 59.9402C110.311 59.9401 110.313 59.94 110.314 59.9398C110.315 59.9397 110.316 59.9396 110.317 59.9395C110.318 59.9394 110.32 59.9393 110.321 59.9391C110.322 59.939 110.323 59.9389 110.324 59.9388C110.325 59.9387 110.327 59.9386 110.328 59.9384C110.329 59.9383 110.33 59.9382 110.331 59.9381C110.332 59.938 110.334 59.9378 110.335 59.9377C110.336 59.9376 110.337 59.9375 110.338 59.9374C110.34 59.9373 110.341 59.9371 110.342 59.937C110.343 59.9369 110.344 59.9368 110.345 59.9367C110.347 59.9365 110.348 59.9364 110.349 59.9363C110.35 59.9362 110.351 59.9361 110.353 59.9359C110.354 59.9358 110.355 59.9357 110.356 59.9356C110.357 59.9355 110.359 59.9353 110.36 59.9352C110.361 59.9351 110.362 59.935 110.364 59.9349C110.365 59.9347 110.366 59.9346 110.367 59.9345C110.368 59.9344 110.37 59.9342 110.371 59.9341C110.372 59.934 110.373 59.9339 110.374 59.9338C110.376 59.9336 110.377 59.9335 110.378 59.9334C110.379 59.9333 110.381 59.9331 110.382 59.933C110.383 59.9329 110.384 59.9328 110.386 59.9327C110.387 59.9325 110.388 59.9324 110.389 59.9323C110.39 59.9322 110.392 59.932 110.393 59.9319C110.394 59.9318 110.395 59.9317 110.397 59.9315C110.398 59.9314 110.399 59.9313 110.4 59.9312C110.402 59.931 110.403 59.9309 110.404 59.9308C110.405 59.9307 110.407 59.9305 110.408 59.9304C110.409 59.9303 110.41 59.9302 110.412 59.93C110.413 59.9299 110.414 59.9298 110.416 59.9297C110.417 59.9295 110.418 59.9294 110.419 59.9293C110.421 59.9291 110.422 59.929 110.423 59.9289C110.424 59.9288 110.426 59.9286 110.427 59.9285C110.428 59.9284 110.429 59.9283 110.431 59.9281C110.432 59.928 110.433 59.9279 110.435 59.9277C110.436 59.9276 110.437 59.9275 110.438 59.9274C110.44 59.9272 110.441 59.9271 110.442 59.927C110.444 59.9268 110.445 59.9267 110.446 59.9266C110.447 59.9265 110.449 59.9263 110.45 59.9262C110.451 59.9261 110.453 59.9259 110.454 59.9258C110.455 59.9257 110.457 59.9255 110.458 59.9254C110.459 59.9253 110.46 59.9252 110.462 59.925C110.463 59.9249 110.464 59.9248 110.466 59.9246C110.467 59.9245 110.468 59.9244 110.47 59.9242C110.471 59.9241 110.472 59.924 110.474 59.9238C110.475 59.9237 110.476 59.9236 110.478 59.9235C110.479 59.9233 110.48 59.9232 110.482 59.9231C110.483 59.9229 110.484 59.9228 110.486 59.9227C110.487 59.9225 110.488 59.9224 110.49 59.9223C110.491 59.9221 110.492 59.922 110.494 59.9219C110.495 59.9217 110.496 59.9216 110.498 59.9215C110.499 59.9213 110.5 59.9212 110.502 59.9211C110.503 59.9209 110.504 59.9208 110.506 59.9206C110.507 59.9205 110.508 59.9204 110.51 59.9202C110.511 59.9201 110.512 59.92 110.514 59.9198C110.515 59.9197 110.516 59.9196 110.518 59.9194C110.519 59.9193 110.52 59.9192 110.522 59.919C110.523 59.9189 110.525 59.9187 110.526 59.9186C110.527 59.9185 110.529 59.9183 110.53 59.9182C110.531 59.9181 110.533 59.9179 110.534 59.9178C110.536 59.9177 110.537 59.9175 110.538 59.9174C110.54 59.9172 110.541 59.9171 110.542 59.917C110.544 59.9168 110.545 59.9167 110.547 59.9165C110.548 59.9164 110.549 59.9163 110.551 59.9161C110.552 59.916 110.554 59.9159 110.555 59.9157C110.556 59.9156 110.558 59.9154 110.559 59.9153C110.56 59.9152 110.562 59.915 110.563 59.9149C110.565 59.9147 110.566 59.9146 110.567 59.9145C110.569 59.9143 110.57 59.9142 110.572 59.914C110.573 59.9139 110.575 59.9138 110.576 59.9136C110.577 59.9135 110.579 59.9133 110.58 59.9132C110.582 59.9131 110.583 59.9129 110.584 59.9128C110.586 59.9126 110.587 59.9125 110.589 59.9123C110.59 59.9122 110.591 59.9121 110.593 59.9119C110.594 59.9118 110.596 59.9116 110.597 59.9115C110.599 59.9113 110.6 59.9112 110.601 59.9111C110.603 59.9109 110.604 59.9108 110.606 59.9106C110.607 59.9105 110.609 59.9103 110.61 59.9102C110.612 59.9101 110.613 59.9099 110.614 59.9098C110.616 59.9096 110.617 59.9095 110.619 59.9093C110.62 59.9092 110.622 59.909 110.623 59.9089C110.625 59.9088 110.626 59.9086 110.627 59.9085C110.629 59.9083 110.63 59.9082 110.632 59.908C110.633 59.9079 110.635 59.9077 110.636 59.9076C110.638 59.9074 110.639 59.9073 110.641 59.9071C110.642 59.907 110.644 59.9069 110.645 59.9067C110.646 59.9066 110.648 59.9064 110.649 59.9063C110.651 59.9061 110.652 59.906 110.654 59.9058C110.655 59.9057 110.657 59.9055 110.658 59.9054C110.66 59.9052 110.661 59.9051 110.663 59.9049C110.664 59.9048 110.666 59.9046 110.667 59.9045C110.669 59.9043 110.67 59.9042 110.672 59.904C110.673 59.9039 110.675 59.9037 110.676 59.9036C110.678 59.9034 110.679 59.9033 110.681 59.9031C110.682 59.903 110.684 59.9028 110.685 59.9027C110.687 59.9025 110.688 59.9024 110.69 59.9022C110.691 59.9021 110.693 59.9019 110.694 59.9018C110.696 59.9016 110.697 59.9015 110.699 59.9013C110.7 59.9012 110.702 59.901 110.703 59.9009C110.705 59.9007 110.706 59.9006 110.708 59.9004C110.709 59.9003 110.711 59.9001 110.712 59.9C110.714 59.8998 110.715 59.8997 110.717 59.8995C110.718 59.8994 110.72 59.8992 110.721 59.8991C110.723 59.8989 110.725 59.8988 110.726 59.8986C110.728 59.8984 110.729 59.8983 110.731 59.8981C110.732 59.898 110.734 59.8978 110.735 59.8977C110.737 59.8975 110.738 59.8974 110.74 59.8972C110.741 59.8971 110.743 59.8969 110.745 59.8967C110.746 59.8966 110.748 59.8964 110.749 59.8963C110.751 59.8961 110.752 59.896 110.754 59.8958C110.755 59.8957 110.757 59.8955 110.759 59.8953C110.76 59.8952 110.762 59.895 110.763 59.8949C110.765 59.8947 110.766 59.8946 110.768 59.8944C110.77 59.8943 110.771 59.8941 110.773 59.8939C110.774 59.8938 110.776 59.8936 110.777 59.8935C110.779 59.8933 110.781 59.8932 110.782 59.893C110.784 59.8928 110.785 59.8927 110.787 59.8925C110.788 59.8924 110.79 59.8922 110.792 59.892C110.793 59.8919 110.795 59.8917 110.796 59.8916C110.798 59.8914 110.8 59.8913 110.801 59.8911C110.803 59.8909 110.804 59.8908 110.806 59.8906C110.808 59.8905 110.809 59.8903 110.811 59.8901C110.812 59.89 110.814 59.8898 110.816 59.8897C110.817 59.8895 110.819 59.8893 110.82 59.8892C110.822 59.889 110.824 59.8889 110.825 59.8887C110.827 59.8885 110.828 59.8884 110.83 59.8882C110.832 59.888 110.833 59.8879 110.835 59.8877C110.836 59.8876 110.838 59.8874 110.84 59.8872C110.841 59.8871 110.843 59.8869 110.845 59.8867C110.846 59.8866 110.848 59.8864 110.849 59.8863C110.851 59.8861 110.853 59.8859 110.854 59.8858C110.856 59.8856 110.858 59.8854 110.859 59.8853C110.861 59.8851 110.863 59.885 110.864 59.8848C110.866 59.8846 110.867 59.8845 110.869 59.8843C110.871 59.8841 110.872 59.884 110.874 59.8838C110.876 59.8836 110.877 59.8835 110.879 59.8833C110.881 59.8831 110.882 59.883 110.884 59.8828C110.886 59.8826 110.887 59.8825 110.889 59.8823C110.891 59.8821 110.892 59.882 110.894 59.8818C110.896 59.8816 110.897 59.8815 110.899 59.8813C110.901 59.8811 110.902 59.881 110.904 59.8808C110.906 59.8806 110.907 59.8805 110.909 59.8803C110.911 59.8801 110.912 59.88 110.914 59.8798C110.916 59.8796 110.917 59.8795 110.919 59.8793C110.921 59.8791 110.922 59.879 110.924 59.8788C110.926 59.8786 110.927 59.8785 110.929 59.8783C110.931 59.8781 110.932 59.878 110.934 59.8778C110.936 59.8776 110.938 59.8774 110.939 59.8773C110.941 59.8771 110.943 59.8769 110.944 59.8768C110.946 59.8766 110.948 59.8764 110.949 59.8763C110.951 59.8761 110.953 59.8759 110.955 59.8758C110.956 59.8756 110.958 59.8754 110.96 59.8752C110.961 59.8751 110.963 59.8749 110.965 59.8747C110.967 59.8746 110.968 59.8744 110.97 59.8742C110.972 59.874 110.973 59.8739 110.975 59.8737C110.977 59.8735 110.979 59.8733 110.98 59.8732C110.982 59.873 110.984 59.8728 110.985 59.8727C110.987 59.8725 110.989 59.8723 110.991 59.8721C110.992 59.872 110.994 59.8718 110.996 59.8716C110.998 59.8714 110.999 59.8713 111.001 59.8711C111.003 59.8709 111.005 59.8708 111.006 59.8706C111.008 59.8704 111.01 59.8702 111.012 59.8701C111.013 59.8699 111.015 59.8697 111.017 59.8695C111.019 59.8694 111.02 59.8692 111.022 59.869C111.024 59.8688 111.026 59.8687 111.027 59.8685C111.029 59.8683 111.031 59.8681 111.033 59.8679C111.034 59.8678 111.036 59.8676 111.038 59.8674C111.04 59.8672 111.041 59.8671 111.043 59.8669C111.045 59.8667 111.047 59.8665 111.049 59.8664C111.05 59.8662 111.052 59.866 111.054 59.8658C111.056 59.8656 111.057 59.8655 111.059 59.8653C111.061 59.8651 111.063 59.8649 111.064 59.8648C111.066 59.8646 111.068 59.8644 111.07 59.8642C111.072 59.864 111.073 59.8639 111.075 59.8637C111.077 59.8635 111.079 59.8633 111.081 59.8631C111.082 59.863 111.084 59.8628 111.086 59.8626C111.088 59.8624 111.09 59.8622 111.091 59.8621C111.093 59.8619 111.095 59.8617 111.097 59.8615C111.099 59.8613 111.1 59.8612 111.102 59.861C111.104 59.8608 111.106 59.8606 111.108 59.8604C111.109 59.8603 111.111 59.8601 111.113 59.8599C111.115 59.8597 111.117 59.8595 111.119 59.8594C111.12 59.8592 111.122 59.859 111.124 59.8588C111.126 59.8586 111.128 59.8584 111.129 59.8583C111.131 59.8581 111.133 59.8579 111.135 59.8577C111.137 59.8575 111.139 59.8573 111.14 59.8572C111.142 59.857 111.144 59.8568 111.146 59.8566C111.148 59.8564 111.15 59.8562 111.152 59.8561C111.153 59.8559 111.155 59.8557 111.157 59.8555C111.159 59.8553 111.161 59.8551 111.163 59.8549C111.164 59.8548 111.166 59.8546 111.168 59.8544C111.17 59.8542 111.172 59.854 111.174 59.8538C111.176 59.8536 111.177 59.8535 111.179 59.8533C111.181 59.8531 111.183 59.8529 111.185 59.8527C111.187 59.8525 111.189 59.8523 111.19 59.8522C111.192 59.852 111.194 59.8518 111.196 59.8516C111.198 59.8514 111.2 59.8512 111.202 59.851L111.003 57.861ZM109.662 58H67.9022V60H109.662V58ZM68.9022 59V51.8H66.9022V59H68.9022ZM67.9022 52.8H76.5422V50.8H67.9022V52.8ZM77.5422 51.8V38.984H75.5422V51.8H77.5422ZM76.757 39.9606L83.957 38.3766L83.5273 36.4234L76.3273 38.0074L76.757 39.9606ZM82.7422 37.4V51.8H84.7422V37.4H82.7422ZM83.7422 52.8H90.9422V50.8H83.7422V52.8ZM91.9422 51.8V38.984H89.9422V51.8H91.9422ZM91.1571 39.9606L98.357 38.3766L97.9273 36.4234L90.7273 38.0074L91.1571 39.9606ZM97.1422 37.4V51.8H99.1422V37.4H97.1422ZM98.1422 52.8H105.342V50.8H98.1422V52.8ZM106.342 51.8V38.984H104.342V51.8H106.342ZM105.557 39.9606L112.757 38.3766L112.327 36.4234L105.127 38.0074L105.557 39.9606ZM125.347 64.496L126.347 64.4716L126.323 63.496H125.347V64.496ZM120.523 64.136L120.745 63.1609L120.727 63.157L120.71 63.1537L120.523 64.136ZM119.227 60.032L118.251 59.8151L118.245 59.8412L118.241 59.8676L119.227 60.032ZM121.315 58.232L121.585 59.195L121.59 59.1935L121.315 58.232ZM123.763 58.304L123.52 59.2741L123.763 58.304ZM125.635 58.88L125.188 59.7744L127.649 61.0053L126.552 58.4813L125.635 58.88ZM123.475 56.576L123.885 55.6641L123.866 55.6554L123.846 55.6475L123.475 56.576ZM116.923 57.368L116.216 56.6609L116.207 56.67L116.198 56.6792L116.923 57.368ZM114.979 60.968L114.013 60.7103L114.011 60.7179L114.009 60.7255L114.979 60.968ZM114.547 67.448H113.547V68.448H114.547V67.448ZM125.419 67.448V68.448H126.444L126.419 67.4236L125.419 67.448ZM126.571 68.096V69.096H127.137L127.428 68.6105L126.571 68.096ZM128.731 64.496L129.588 65.0105L130.497 63.496H128.731V64.496ZM111.451 64.496V63.496H110.885L110.593 63.9815L111.451 64.496ZM109.291 68.096L108.433 67.5815L107.525 69.096H109.291V68.096ZM125.347 63.496H123.475V65.496H125.347V63.496ZM123.475 63.496C122.65 63.496 121.741 63.3873 120.745 63.1609L120.301 65.1111C121.417 65.3647 122.476 65.496 123.475 65.496V63.496ZM120.71 63.1537C120.46 63.106 120.333 63.0058 120.24 62.8545C120.123 62.6647 120.011 62.309 120.011 61.688H118.011C118.011 62.507 118.151 63.2793 118.538 63.9055C118.949 64.5702 119.578 64.974 120.336 65.1183L120.71 63.1537ZM120.011 61.688C120.011 61.5482 120.065 61.0859 120.213 60.1964L118.241 59.8676C118.101 60.7061 118.011 61.3478 118.011 61.688H120.011ZM120.203 60.2489C120.284 59.885 120.576 59.4774 121.585 59.195L121.045 57.269C119.654 57.6586 118.554 58.451 118.251 59.8151L120.203 60.2489ZM121.59 59.1935C122.037 59.0657 122.664 59.0599 123.52 59.2741L124.005 57.3339C122.942 57.0681 121.937 57.0143 121.04 57.2705L121.59 59.1935ZM123.52 59.2741C124.501 59.5192 125.015 59.688 125.188 59.7744L126.082 57.9856C125.679 57.784 124.945 57.5688 124.005 57.3339L123.52 59.2741ZM126.552 58.4813C125.988 57.1842 125.105 56.2128 123.885 55.6641L123.065 57.4879C123.765 57.8032 124.322 58.3678 124.718 59.2787L126.552 58.4813ZM123.846 55.6475C122.836 55.2432 121.907 55 121.099 55V57C121.539 57 122.194 57.1408 123.104 57.5045L123.846 55.6475ZM121.099 55C119.082 55 117.386 55.4909 116.216 56.6609L117.63 58.0751C118.284 57.4211 119.372 57 121.099 57V55ZM116.198 56.6792C115.157 57.7751 114.434 59.1293 114.013 60.7103L115.945 61.2257C116.292 59.9267 116.865 58.8809 117.648 58.0568L116.198 56.6792ZM114.009 60.7255C113.696 61.9781 113.547 63.4316 113.547 65.072H115.547C115.547 63.5444 115.686 62.2619 115.949 61.2105L114.009 60.7255ZM113.547 65.072V67.448H115.547V65.072H113.547ZM114.547 68.448H125.419V66.448H114.547V68.448ZM126.419 67.4236L126.347 64.4716L124.347 64.5204L124.419 67.4724L126.419 67.4236ZM127.428 68.6105L129.588 65.0105L127.873 63.9815L125.713 67.5815L127.428 68.6105ZM128.731 63.496H111.451V65.496H128.731V63.496ZM110.593 63.9815L108.433 67.5815L110.148 68.6105L112.308 65.0105L110.593 63.9815ZM109.291 69.096H126.571V67.096H109.291V69.096ZM119.742 1.4H120.742V0.156085L119.527 0.423355L119.742 1.4ZM126.582 54.824L127.544 55.0987L128.151 52.9745L126.154 53.9203L126.582 54.824ZM123.774 58.064L123.293 57.1871L123.281 57.194L123.774 58.064ZM118.95 59.288V58.288H118.936L118.922 58.2884L118.95 59.288ZM114.414 57.92L113.804 58.7126L113.812 58.7182L113.819 58.7236L114.414 57.92ZM112.542 2.984L112.327 2.00735L111.542 2.18008V2.984H112.542ZM118.742 1.4V53.24H120.742V1.4H118.742ZM118.742 53.24C118.742 54.2518 119.02 55.1975 119.771 55.849C120.502 56.4844 121.49 56.6694 122.531 56.6146L122.426 54.6174C121.643 54.6586 121.262 54.4956 121.082 54.339C120.92 54.1985 120.742 53.9082 120.742 53.24H118.742ZM122.531 56.6146C124.397 56.5164 125.921 56.2438 127.01 55.7277L126.154 53.9203C125.42 54.2682 124.208 54.5236 122.426 54.6174L122.531 56.6146ZM125.621 54.5493C125.325 55.5831 124.601 56.4703 123.293 57.1872L124.255 58.9408C125.924 58.0257 127.071 56.7529 127.544 55.0987L125.621 54.5493ZM123.281 57.194C122.002 57.9186 120.566 58.288 118.95 58.288V60.288C120.886 60.288 122.666 59.8414 124.267 58.934L123.281 57.194ZM118.922 58.2884C117.401 58.3306 116.112 57.9333 115.009 57.1164L113.819 58.7236C115.308 59.8267 117.043 60.3414 118.978 60.2876L118.922 58.2884ZM115.024 57.1274C114.106 56.421 113.542 55.2129 113.542 53.24H111.542C111.542 55.5871 112.227 57.499 113.804 58.7126L115.024 57.1274ZM113.542 53.24V2.984H111.542V53.24H113.542ZM112.757 3.96064L119.957 2.37664L119.527 0.423355L112.327 2.00735L112.757 3.96064Z" fill="black"/>
</svg>
