<svg width="266" height="150" viewBox="0 0 266 150" fill="none" xmlns="http://www.w3.org/2000/svg">
<path d="M63 120H0.75L13.35 99C14.35 101 15.85 102.5 17.85 103.5C19.85 104.5 21.75 105 23.55 105H54L63 120ZM55.5 97.5C55.5 99.6 56.2 101.4 57.6 102.9C59.1 104.3 60.9 105 63 105C65.1 105 66.85 104.3 68.25 102.9C69.75 101.4 70.5 99.6 70.5 97.5C70.5 95.4 69.75 93.65 68.25 92.25C66.85 90.75 65.1 90 63 90C60.9 90 59.1 90.75 57.6 92.25C56.2 93.65 55.5 95.4 55.5 97.5ZM40.65 97.5C40.65 91.6 42.65 86.5 46.65 82.2C50.75 77.8 55.7 75.4 61.5 75C62 73 62.65 71.5 63.45 70.5C64.25 69.5 65.05 68.55 65.85 67.65C78.75 75.75 85.2 85.7 85.2 97.5C85.2 103.7 83.05 109 78.75 113.4C74.45 117.8 69.2 120 63 120C56.8 120 51.5 117.8 47.1 113.4C42.8 109 40.65 103.7 40.65 97.5ZM88.9922 97.5V3.29999L103.992 -1.78814e-06V105L88.9922 97.5ZM130.242 97.5C130.242 103.7 127.992 109 123.492 113.4C119.092 117.8 113.842 120 107.742 120C101.642 120 96.3422 117.8 91.8422 113.4C87.4422 109 85.2422 103.7 85.2422 97.5H100.242C100.242 99.6 100.942 101.4 102.342 102.9C103.842 104.3 105.642 105 107.742 105C109.842 105 111.592 104.3 112.992 102.9C114.492 101.4 115.242 99.6 115.242 97.5H130.242ZM100.242 127.5C100.242 129.6 100.942 131.35 102.342 132.75C103.842 134.25 105.642 135 107.742 135C109.842 135 111.592 134.25 112.992 132.75C114.492 131.35 115.242 129.6 115.242 127.5C115.242 125.4 114.492 123.6 112.992 122.1C111.592 120.7 109.842 120 107.742 120C105.642 120 103.842 120.7 102.342 122.1C100.942 123.6 100.242 125.4 100.242 127.5ZM85.2422 127.5C85.2422 121.3 87.4422 116 91.8422 111.6C96.3422 107.2 101.642 105 107.742 105C113.842 105 119.092 107.2 123.492 111.6C127.892 116 130.092 121.3 130.092 127.5C130.092 133.7 127.892 139 123.492 143.4C119.092 147.8 113.842 150 107.742 150C101.642 150 96.3422 147.8 91.8422 143.4C87.4422 139 85.2422 133.7 85.2422 127.5ZM115.242 105V-1.78814e-06L130.242 3.29999V97.5L115.242 105ZM148.242 105V120H107.742L115.242 105H148.242ZM231.463 75V116.55C231.463 118.45 230.463 119.5 228.463 119.7C226.463 119.9 225.463 120 225.463 120H138.463V105H156.463V78.3L171.463 75V105H186.463V78.3L201.463 75V105H216.463V78.3L231.463 75ZM258.139 129.7H254.239C252.339 129.7 250.289 129.45 248.089 128.95C245.989 128.55 244.939 126.85 244.939 123.85C244.939 123.35 245.089 122.2 245.389 120.4C245.789 118.6 247.239 117.35 249.739 116.65C251.139 116.25 252.839 116.3 254.839 116.8C256.839 117.3 258.139 117.7 258.739 118C257.739 115.7 256.239 114.1 254.239 113.2C252.239 112.4 250.589 112 249.289 112C245.389 112 242.489 112.95 240.589 114.85C238.689 116.85 237.339 119.35 236.539 122.35C235.939 124.75 235.639 127.6 235.639 130.9V135.85H258.289L258.139 129.7ZM260.689 137.2L265.189 129.7H229.189L224.689 137.2H260.689ZM246.463 -1.78814e-06V108C246.463 111.5 248.363 113.15 252.163 112.95C255.963 112.75 258.813 112.2 260.713 111.3C259.913 114.1 257.963 116.35 254.863 118.05C251.863 119.75 248.513 120.6 244.813 120.6C241.213 120.7 238.063 119.75 235.363 117.75C232.763 115.75 231.463 112.5 231.463 108V3.29999L246.463 -1.78814e-06Z" fill="white"/>
</svg>
