<svg width="2634" height="2455" viewBox="0 0 2634 2455" fill="none" xmlns="http://www.w3.org/2000/svg">
<path d="M2627.7 470.077C2567.28 655.037 2507.03 840.029 2446.97 1025.05L2049.52 946.346H2041.62V2449.82H565.291V969.581L205.209 1024.68L6.47949 470.077L565.291 216.421L613.504 194.564L1029.79 5.6543C1106.94 65.2326 1200.12 100.41 1297.39 106.676C1405.59 112.59 1512.71 82.5972 1602.1 21.3585L1997.91 194.564L2040.98 213.391L2627.7 470.077Z" stroke="black" stroke-width="9" stroke-miterlimit="10"/>
<path opacity="0.5" d="M747.028 236.075V2324.74" stroke="black" stroke-width="11" stroke-miterlimit="10"/>
<path opacity="0.5" d="M1959.25 1154.45H647.301" stroke="black" stroke-width="11" stroke-miterlimit="10"/>
<path d="M838.409 2255.18H830.364V2325H838.409V2255.18ZM875.099 2326.09C885.736 2326.09 893.509 2320.77 895.963 2312.86L888.19 2310.68C886.145 2316.14 881.406 2318.86 875.099 2318.86C865.656 2318.86 859.145 2312.76 858.77 2301.55H896.781V2298.14C896.781 2278.64 885.19 2271.95 874.281 2271.95C860.099 2271.95 850.69 2283.14 850.69 2299.23C850.69 2315.32 859.963 2326.09 875.099 2326.09ZM858.77 2294.59C859.315 2286.44 865.077 2279.18 874.281 2279.18C883.009 2279.18 888.599 2285.73 888.599 2294.59H858.77ZM917.065 2293.5C917.065 2284.36 922.724 2279.18 930.429 2279.18C937.895 2279.18 942.429 2284.06 942.429 2292.27V2325H950.474V2291.73C950.474 2278.36 943.349 2271.95 932.747 2271.95C924.838 2271.95 919.929 2275.5 917.474 2280.82H916.793V2272.64H909.02V2325H917.065V2293.5ZM986.312 2345.73C998.858 2345.73 1008.95 2340 1008.95 2326.5V2272.64H1001.18V2280.95H1000.36C998.585 2278.23 995.312 2271.95 985.085 2271.95C971.858 2271.95 962.722 2282.45 962.722 2298.55C962.722 2314.91 972.267 2324.18 984.949 2324.18C995.176 2324.18 998.449 2318.18 1000.22 2315.32H1000.9V2325.95C1000.9 2334.68 994.767 2338.64 986.312 2338.64C976.801 2338.64 973.46 2333.62 971.312 2330.73L964.903 2335.23C968.176 2340.72 974.619 2345.73 986.312 2345.73ZM986.04 2316.95C975.949 2316.95 970.767 2309.32 970.767 2298.41C970.767 2287.77 975.812 2279.18 986.04 2279.18C995.858 2279.18 1001.04 2287.09 1001.04 2298.41C1001.04 2310 995.722 2316.95 986.04 2316.95ZM1031.72 2293.5C1031.72 2284.36 1037.55 2279.18 1045.49 2279.18C1053.06 2279.18 1057.63 2283.95 1057.63 2292.27V2325H1065.68V2291.73C1065.68 2278.26 1058.52 2271.95 1047.81 2271.95C1039.56 2271.95 1034.86 2275.4 1032.4 2280.82H1031.72V2255.18H1023.68V2325H1031.72V2293.5ZM1103.17 2272.64H1091.99V2260.09H1083.94V2272.64H1076.03V2279.45H1083.94V2312.18C1083.94 2321.32 1091.3 2325.68 1098.12 2325.68C1101.12 2325.68 1103.03 2325.14 1104.12 2324.73L1102.49 2317.5C1101.8 2317.64 1100.71 2317.91 1098.94 2317.91C1095.39 2317.91 1091.99 2316.82 1091.99 2310V2279.45H1103.17V2272.64Z" fill="#231F20"/>
<path d="M1701.64 1289.09C1713.23 1289.09 1720.86 1282 1722.23 1272.73H1714.18C1712.68 1278.45 1707.91 1281.86 1701.64 1281.86C1692.09 1281.86 1685.95 1273.95 1685.95 1261.82C1685.95 1249.95 1692.23 1242.18 1701.64 1242.18C1708.73 1242.18 1712.95 1246.55 1714.18 1251.32H1722.23C1720.86 1241.5 1712.55 1234.95 1701.5 1234.95C1687.32 1234.95 1677.91 1246.14 1677.91 1262.09C1677.91 1277.77 1686.91 1289.09 1701.64 1289.09ZM1742.03 1256.5C1742.03 1247.36 1747.86 1242.18 1755.81 1242.18C1763.38 1242.18 1767.94 1246.95 1767.94 1255.27V1288H1775.99V1254.73C1775.99 1241.26 1768.83 1234.95 1758.12 1234.95C1749.88 1234.95 1745.17 1238.4 1742.72 1243.82H1742.03V1218.18H1733.99V1288H1742.03V1256.5ZM1812.66 1289.09C1823.3 1289.09 1831.07 1283.77 1833.53 1275.86L1825.75 1273.68C1823.71 1279.14 1818.97 1281.86 1812.66 1281.86C1803.22 1281.86 1796.71 1275.76 1796.33 1264.55H1834.34V1261.14C1834.34 1241.64 1822.75 1234.95 1811.84 1234.95C1797.66 1234.95 1788.25 1246.14 1788.25 1262.23C1788.25 1278.32 1797.53 1289.09 1812.66 1289.09ZM1796.33 1257.59C1796.88 1249.44 1802.64 1242.18 1811.84 1242.18C1820.57 1242.18 1826.16 1248.73 1826.16 1257.59H1796.33ZM1883.67 1247.36C1881.15 1239.93 1875.49 1234.95 1865.13 1234.95C1854.08 1234.95 1845.9 1241.23 1845.9 1250.09C1845.9 1257.32 1850.2 1262.16 1859.81 1264.41L1868.54 1266.45C1873.82 1267.68 1876.31 1270.2 1876.31 1273.82C1876.31 1278.32 1871.54 1282 1864.04 1282C1857.46 1282 1853.33 1279.17 1851.9 1273.55L1844.26 1275.45C1846.14 1284.35 1853.47 1289.09 1864.17 1289.09C1876.34 1289.09 1884.63 1282.44 1884.63 1273.41C1884.63 1266.11 1880.06 1261.51 1870.72 1259.23L1862.95 1257.32C1856.74 1255.78 1853.95 1253.7 1853.95 1249.68C1853.95 1245.18 1858.72 1241.91 1865.13 1241.91C1872.15 1241.91 1875.05 1245.8 1876.45 1249.41L1883.67 1247.36ZM1919.51 1235.64H1908.33V1223.09H1900.28V1235.64H1892.38V1242.45H1900.28V1275.18C1900.28 1284.32 1907.65 1288.68 1914.47 1288.68C1917.47 1288.68 1919.38 1288.14 1920.47 1287.73L1918.83 1280.5C1918.15 1280.64 1917.06 1280.91 1915.28 1280.91C1911.74 1280.91 1908.33 1279.82 1908.33 1273V1242.45H1919.51V1235.64Z" fill="#231F20"/>
</svg>
